<svg width="255" height="50" viewBox="0 0 255 50" fill="none" xmlns="http://www.w3.org/2000/svg">
<path d="M136.108 48.2524H140.26V48.8116H122.666V48.2524H127.17V1.30876H122.174V0.703601C124.284 0.703601 126.537 0.703601 128.86 0.562802C131.182 0.492599 133.574 0.281597 136.108 0V32.8102L144.577 24.9547L145.773 23.7581C146.338 23.2659 146.829 22.7733 146.829 22.1395C146.829 21.3214 146.235 21.2959 144.725 21.2313C144.677 21.2292 144.627 21.2271 144.577 21.2249H141.41V20.6413H156.119V21.2249L154.078 21.2951L154.055 21.2972C152.45 21.437 151.532 21.5171 148.87 23.6879L143.38 28.6849L157.681 48.2524H160.254L160.27 48.8116H142.185L142.171 48.2308L147.054 48.2524L136.108 33.3962V48.2524Z" fill="#231F20"/>
<path fill-rule="evenodd" clip-rule="evenodd" d="M74.5587 33.93C74.5665 33.32 74.5743 32.7126 74.5743 32.1052H94.7018C94.2092 28.9386 93.7162 25.8426 90.9014 22.8164C88.2274 19.9307 84.3568 18.4529 80.4156 18.4529C71.2669 18.4529 64.8631 25.1382 64.8631 33.9352C64.8631 42.451 70.9853 49.5588 80.9784 49.5588C89.4934 49.5588 92.7314 43.7174 94.35 40.6206L93.7323 40.308C90.9301 45.3901 87.6583 47.8668 81.6766 47.8668C74.8243 47.8668 74.6494 40.7283 74.5798 37.8855C74.5779 37.809 74.5761 37.7355 74.5743 37.6654C74.5271 36.3957 74.543 35.1576 74.5587 33.93ZM85.4122 31.2565H74.7151L74.7857 26.265C75.0677 23.4502 75.4893 20.0718 80.4156 20.0718C84.9094 20.0718 85.1925 23.3995 85.4011 25.8522L85.4122 25.983V31.2565Z" fill="#231F20"/>
<path d="M9.32448 21.6818C8.64048 21.6818 8.13533 21.1465 8.13533 20.4629C8.13533 19.7793 8.64048 19.2443 9.32448 19.2443C9.99317 19.2443 10.4987 19.7793 10.4987 20.4629C10.4987 21.1465 9.99317 21.6818 9.32448 21.6818Z" fill="#231F20"/>
<path d="M8.26908 33.4061L2.7697 35.2491V37.4932L10.4093 34.7435V32.1425L2.7697 29.3928V31.5926L8.26908 33.4061Z" fill="#231F20"/>
<path d="M0 27.7534C0 28.437 0.505149 28.9724 1.18875 28.9724C1.85784 28.9724 2.36299 28.437 2.36299 27.7534C2.36299 27.0698 1.85784 26.5349 1.18875 26.5349C0.505149 26.5349 0 27.0698 0 27.7534Z" fill="#231F20"/>
<path d="M10.4093 26.6984H2.7697V28.8088H10.4093V26.6984Z" fill="#231F20"/>
<path d="M2.7697 20.5543V22.516H2.41319C1.98216 22.516 1.78881 22.3082 1.78881 21.892V20.5543H0.00549228V22.2635C0.00549228 23.8091 0.793024 24.5672 2.20532 24.5672H2.7697V26.0101H4.5385V24.5672H10.4093V22.4717H4.5385V20.5543H2.7697Z" fill="#231F20"/>
<path d="M58.0334 19.3941H70.7009V19.9624L68.9415 20.0334C65.8451 20.1028 65.7043 20.3142 64.4375 23.4106L54.6216 49.9914L54.2451 49.9847L44.9183 27.5518L36.1625 50L35.8311 49.9914L23.7926 19.9703H20.2742V19.3953H38.2196V19.9703H33.2936L40.2649 37.8168L47.4433 19.3792H49.5548L57.0846 37.958L62.3966 23.2698C62.8189 22.1438 63.03 21.4398 63.03 20.9476C63.03 19.9624 61.9746 19.9624 61.0596 19.9624H58.0334V19.3941Z" fill="#231F20"/>
<path fill-rule="evenodd" clip-rule="evenodd" d="M105.361 33.93L105.361 33.9276C105.368 33.3185 105.376 32.7119 105.376 32.1052H125.503C125.01 28.9386 124.518 25.8426 121.703 22.8164C119.028 19.9307 115.158 18.4529 111.217 18.4529C102.068 18.4529 95.6639 25.1382 95.6639 33.9352C95.6639 42.451 101.787 49.5588 111.78 49.5588C120.295 49.5588 123.533 43.7174 125.151 40.6206L124.533 40.308C121.731 45.3901 118.46 47.8668 112.478 47.8668C105.624 47.8668 105.451 40.7252 105.382 37.8837C105.38 37.8078 105.378 37.7349 105.376 37.6654C105.329 36.3957 105.345 35.1576 105.361 33.93ZM116.213 31.2565H105.517L105.587 26.265C105.868 23.4502 106.29 20.0718 111.217 20.0718C115.71 20.0718 115.993 23.3984 116.202 25.851C116.206 25.8953 116.209 25.9393 116.213 25.983V31.2565Z" fill="#231F20"/>
<path fill-rule="evenodd" clip-rule="evenodd" d="M165.201 33.93C165.209 33.32 165.216 32.7126 165.216 32.1052H185.343C184.851 28.9386 184.358 25.8426 181.544 22.8164C178.869 19.9307 174.999 18.4529 171.057 18.4529C161.908 18.4529 155.504 25.1382 155.504 33.9352C155.504 42.451 161.627 49.5588 171.62 49.5588C180.136 49.5588 183.374 43.7174 184.991 40.6206L184.374 40.308C181.572 45.3901 178.301 47.8668 172.319 47.8668C165.466 47.8668 165.292 40.729 165.222 37.8859L165.222 37.8795C165.221 37.8264 165.219 37.7748 165.218 37.7248L165.216 37.6654C165.17 36.3968 165.185 35.1598 165.201 33.9332V33.93ZM176.054 31.2565H165.357L165.428 26.265C165.709 23.4502 166.131 20.0718 171.057 20.0718C175.551 20.0718 175.834 23.3995 176.043 25.8522L176.054 25.983V31.2565Z" fill="#231F20"/>
<path d="M216.238 26.7262C216.3 18.5889 199.489 13.8971 195.513 25.0323L195.552 20.0734C193.51 20.1561 191.642 20.2714 189.865 20.3809C187.111 20.5507 184.579 20.7068 181.97 20.7068V21.2249H186.756V48.2606H181.97V48.8116H200.057V48.2606H195.552V29.3328C195.497 19.2325 207.503 14.9031 207.503 27.4428L207.515 29.5289V48.2367H203.575V48.8116H220.888V48.2367H216.243V28.1923L216.238 26.7262Z" fill="#231F20"/>
<path fill-rule="evenodd" clip-rule="evenodd" d="M235.868 0.660467H240.583C244.056 0.660467 245.948 0.463232 249.128 0.131674L249.451 0.0980568V48.2367H254.094V48.8116H240.512L240.51 43.6688C240.401 43.8381 240.289 44.0132 240.175 44.1923C238.665 46.5646 236.698 49.6564 231.856 49.6564C230.027 49.6564 228.126 49.3748 226.437 48.6712C226.361 48.6375 226.263 48.5977 226.147 48.55C224.315 47.802 217.801 45.1408 217.801 34.4812C217.801 23.6432 223.518 18.516 231.504 18.5505C236.641 18.5733 239.207 21.5787 240.51 23.5338L240.512 1.23857H235.868V0.660467ZM239.662 25.0324C238.759 22.4035 237.105 20.0142 233.863 20.0142C228.867 20.0142 227.423 26.8553 227.423 34.0333C227.423 35.4405 227.493 36.9191 227.634 38.3263C227.986 41.4219 228.817 47.9696 233.603 47.9696C238.132 47.9696 239.394 43.7645 239.936 41.9615L239.95 41.9149C239.966 41.8598 239.984 41.8016 240.004 41.7394C240.292 40.8126 240.859 38.9921 240.793 33.1889C240.724 28.9657 240.379 27.1169 239.662 25.0324Z" fill="#231F20"/>
<path d="M15.1819 49.8337V19.2443H15.5741V49.8337H15.1819Z" fill="#231F20"/>
<path fill-rule="evenodd" clip-rule="evenodd" d="M2.68067 43.1009C2.68067 45.4639 4.22632 47.0244 6.6046 47.0244C8.96759 47.0244 10.4987 45.4937 10.4987 42.9522C10.4987 40.9159 9.30958 39.5931 7.82316 39.3554V41.4215C8.53656 41.5995 8.90837 42.1941 8.90837 43.0413C8.90837 44.0967 8.25418 44.7952 7.16936 44.8399H7.06504V39.2958C6.82737 39.2515 6.57479 39.2365 6.35203 39.2365C4.10748 39.2664 2.68067 40.812 2.68067 43.1009ZM5.69784 44.7952C4.79108 44.6763 4.24122 43.9927 4.24122 43.086C4.24122 42.1349 4.76167 41.4956 5.69784 41.347V44.7952Z" fill="#231F20"/>
<path d="M10.4093 47.6978H0.00549228V49.7937H10.4093V47.6978Z" fill="#231F20"/>
</svg>
